REM DIRINDEX 1\2,1\3,1\4,1\5
REM DIRNAME "folder01","folder02","folder03","folder04","folder05"
TITLE ""
FILE "P1Q_t_1549-1558.mp3" MP3
  TRACK 01 AUDIO
    TITLE "0:"
    INDEX 01 00:00:00
  TRACK 02 AUDIO
    TITLE "3:cjc173_5626"
    INDEX 01 00:00:12
  TRACK 03 AUDIO
    TITLE "0:"
    INDEX 01 00:01:41
  TRACK 04 AUDIO
    TITLE "4:cjc173_5627"
    INDEX 01 00:01:61
  TRACK 05 AUDIO
    TITLE "0:"
    INDEX 01 00:03:01
  TRACK 06 AUDIO
    TITLE "5:cjc173_5628"
    INDEX 01 00:03:24
  TRACK 07 AUDIO
    TITLE "0:"
    INDEX 01 00:08:16
  TRACK 08 AUDIO
    TITLE "3:cjc173_5629"
    INDEX 01 00:08:63
  TRACK 09 AUDIO
    TITLE "0:"
    INDEX 01 00:10:05
  TRACK 10 AUDIO
    TITLE "4:cjc173_5630"
    INDEX 01 00:10:26
  TRACK 11 AUDIO
    TITLE "0:"
    INDEX 01 00:12:25
  TRACK 12 AUDIO
    TITLE "5:cjc173_5631"
    INDEX 01 00:12:45
  TRACK 13 AUDIO
    TITLE "0:"
    INDEX 01 00:16:50
  TRACK 14 AUDIO
    TITLE "3:cjc173_5632"
    INDEX 01 00:17:21
  TRACK 15 AUDIO
    TITLE "0:"
    INDEX 01 00:18:18
  TRACK 16 AUDIO
    TITLE "4:cjc173_5633"
    INDEX 01 00:18:38
  TRACK 17 AUDIO
    TITLE "0:"
    INDEX 01 00:20:42
  TRACK 18 AUDIO
    TITLE "5:cjc173_5634"
    INDEX 01 00:20:62
  TRACK 19 AUDIO
    TITLE "0:"
    INDEX 01 00:25:08
  TRACK 20 AUDIO
    TITLE "3:cjc173_5635"
    INDEX 01 00:25:55
  TRACK 21 AUDIO
    TITLE "0:"
    INDEX 01 00:27:03
  TRACK 22 AUDIO
    TITLE "4:cjc173_5636"
    INDEX 01 00:27:27
  TRACK 23 AUDIO
    TITLE "0:"
    INDEX 01 00:29:37
  TRACK 24 AUDIO
    TITLE "5:cjc173_5637"
    INDEX 01 00:29:57
  TRACK 25 AUDIO
    TITLE "0:"
    INDEX 01 00:34:46
  TRACK 26 AUDIO
    TITLE "3:cjc173_5638"
    INDEX 01 00:35:16
  TRACK 27 AUDIO
    TITLE "0:"
    INDEX 01 00:36:36
  TRACK 28 AUDIO
    TITLE "4:cjc173_5639"
    INDEX 01 00:36:55
  TRACK 29 AUDIO
    TITLE "0:"
    INDEX 01 00:40:47
  TRACK 30 AUDIO
    TITLE "5:cjc173_5640"
    INDEX 01 00:40:65
  TRACK 31 AUDIO
    TITLE "0:"
    INDEX 01 00:45:52
  TRACK 32 AUDIO
    TITLE "3:cjc173_5641"
    INDEX 01 00:46:24
  TRACK 33 AUDIO
    TITLE "0:"
    INDEX 01 00:47:27
  TRACK 34 AUDIO
    TITLE "4:cjc173_5642"
    INDEX 01 00:47:51
  TRACK 35 AUDIO
    TITLE "0:"
    INDEX 01 00:49:48
  TRACK 36 AUDIO
    TITLE "5:cjc173_5643"
    INDEX 01 00:49:70
  TRACK 37 AUDIO
    TITLE "0:"
    INDEX 01 00:53:26
  TRACK 38 AUDIO
    TITLE "3:cjc173_5644"
    INDEX 01 00:53:71
  TRACK 39 AUDIO
    TITLE "0:"
    INDEX 01 00:55:11
  TRACK 40 AUDIO
    TITLE "4:cjc173_5645"
    INDEX 01 00:55:33
  TRACK 41 AUDIO
    TITLE "0:"
    INDEX 01 00:56:36
  TRACK 42 AUDIO
    TITLE "5:cjc173_5646"
    INDEX 01 00:56:54
  TRACK 43 AUDIO
    TITLE "0:"
    INDEX 01 01:02:74
  TRACK 44 AUDIO
    TITLE "3:cjc173_5647"
    INDEX 01 01:03:44
  TRACK 45 AUDIO
    TITLE "0:"
    INDEX 01 01:04:57
  TRACK 46 AUDIO
    TITLE "4:cjc173_5648"
    INDEX 01 01:05:04
  TRACK 47 AUDIO
    TITLE "0:"
    INDEX 01 01:08:71
  TRACK 48 AUDIO
    TITLE "5:cjc173_5649"
    INDEX 01 01:09:15
  TRACK 49 AUDIO
    TITLE "0:"
    INDEX 01 01:14:03
  TRACK 50 AUDIO
    TITLE "3:cjc173_5650"
    INDEX 01 01:14:48
  TRACK 51 AUDIO
    TITLE "0:"
    INDEX 01 01:15:63
  TRACK 52 AUDIO
    TITLE "4:cjc173_5651"
    INDEX 01 01:16:10
  TRACK 53 AUDIO
    TITLE "0:"
    INDEX 01 01:18:36
  TRACK 54 AUDIO
    TITLE "5:cjc173_5652"
    INDEX 01 01:18:57
  TRACK 55 AUDIO
    TITLE "0:"
    INDEX 01 01:24:13
  TRACK 56 AUDIO
    TITLE "3:cjc173_5653"
    INDEX 01 01:24:62
  TRACK 57 AUDIO
    TITLE "0:"
    INDEX 01 01:25:73
  TRACK 58 AUDIO
    TITLE "4:cjc173_5654"
    INDEX 01 01:26:18
  TRACK 59 AUDIO
    TITLE "0:"
    INDEX 01 01:28:24
  TRACK 60 AUDIO
    TITLE "5:cjc173_5655"
    INDEX 01 01:28:44
  TRACK 61 AUDIO
    TITLE "0:"
    INDEX 01 01:33:47
